<svg width="1006" height="911" viewBox="0 0 1006 911" fill="none" xmlns="http://www.w3.org/2000/svg">
<path d="M645 752L673.5 744.5L679.5 747.5L682 754L660.5 784H636.5L630.5 767.5L645 752Z" fill="#D9D9D9"/>
<path d="M531 381.5L538.189 369.985L568.886 339.017L647.499 335.738L668.088 324.067L727.983 300.75L739.963 273.789V255.209L766.541 213.675H799.484L824.939 223.148L834.672 242.093H846.652L856.759 246.465L855.636 262.131L869.861 267.96L867.989 288.727L851.892 289.82L830.555 314.23L822.319 312.772L819.324 300.75L826.811 294.192L830.555 288.727L824.939 283.626L826.811 279.983L820.447 277.068L812.586 279.983L807.719 285.448L802.853 287.269L800.981 296.378L792.746 298.564L783.761 308.765L780.766 316.051L763.547 319.695L759.803 328.074L754.936 331.353V339.004L759.803 340.097L763.547 346.291H771.033L780.766 351.756L796.115 365.6H802.853L809.966 349.57L819.699 346.291L837.667 351.027L841.411 348.477L845.903 349.57V355.763L823.816 368.15L805.473 395.111L796.115 406.041L804.725 420.614L818.201 421.707L831.116 439.012L837.574 447.665L845.903 454.861L850.021 457.411L855.636 465.062L850.863 473.715V480.364H857.508L860.502 485.1L854.513 488.743L851.518 490.565L848.149 496.03H842.159L836.544 499.673L845.716 506.049L857.882 503.681L863.872 507.688L865.743 513.882L862 516.796L866.118 522.99L865.369 536.106L852.828 552.501L848.149 558.33L850.021 564.159L843.657 577.275L837.48 578.004V583.469L838.79 602.778L827.934 621.723L816.142 630.831L810.714 641.397L802.479 644.312L800.888 647.408L800.233 653.784L793.494 659.613L790.5 669.815L758.306 677.101L738.465 686.209L724.989 682.202L719.373 698.961L706.646 705.519L691.672 707.705L684.559 713.17L670.708 716.084L661.35 729.2L669.211 737.215L655.734 738.673L652.365 732.479L653.727 721.549L627.658 713.898L610.064 720.092L601.828 724.327L596.213 731.022L586.106 732.479L583.86 736.851L586.106 747.781L577.121 748.874L570.383 756.525L571.132 762.718L566.64 767.455L565.891 775.47L576.373 787.493L577.121 796.237L589.101 796.965V808.624L595.464 816.275L594.716 827.205L582.737 829.026L556.158 805.709L559.527 795.508L553.912 787.493V780.206L547.174 758.711V745.595V732.479L554.286 716.084L564.768 724.327H592.329L601.36 717.451L603.7 707.705L619.423 703.697L611.936 684.752L603.7 683.295L597.336 676.008L605.197 664.714L598.834 651.234V636.296L605.197 624.638L616.241 616.076L613.059 604.235L590.598 589.662L578.244 568.895L562.896 563.795L549.42 566.71L554.286 578.732L528.456 589.662V563.795L520.969 561.973L520.595 569.624L503.375 598.77L505.621 612.251L496.637 619.537L486.529 622.087L468.561 633.382L455.458 632.289L447.597 616.076L467.812 614.072L475.299 608.972V594.398L466.315 582.74L467.812 575.453L473.427 572.539V551.408L480.54 542.299L482.037 499.673L494.278 470.13L497.338 462.744L498.868 459.051L483.5 441L471.5 414.5L467.5 373.5L423 352L371.5 324.5H346.5L318.5 341.5L222 348L195 352L172.5 369L146.5 373.5L127 388H106L79 361.5H54.5L36.5 352L33.5 328L21.5 325L30 314L13 265L65.5 243L28.5 174.5L110.5 199L121 180.5L176 166L188 177L226.75 165L265.5 153L347.5 202.5L342.5 256L387.5 294.5L451 309L454 319L498.868 355.5L531 381.5Z" fill="#D9D9D9"/>
<path d="M724 737H735V747L729 750L724 747L721.5 742L724 737Z" fill="#D9D9D9"/>
<path d="M641.509 749.967C641.884 749.93 642.259 749.893 642.632 749.854M642.632 749.854C657.128 748.346 669.576 745.194 674.077 743.773L679.318 746.688L682.687 755.432L670.708 767.09V774.741L660.6 783.485L635.145 785.671V774.741L629.904 766.362L638.139 760.168L642.632 753.246V749.854ZM726.485 736.487H735.844V740.494V746.688L729.48 749.967L723.491 748.509L720.87 740.494L726.485 735.394M859.379 50.0914L859.606 51.5487M859.606 51.5487L861.251 62.1142L868.363 72.3154H884.086H895.316L903.552 77.416L912.536 81.0593L919.274 85.0669L921.895 87.9816L919.274 95.6325L927.51 100.733L944.73 100.004L953.34 95.6325L954.463 87.9816L974.303 72.3154L980.293 81.788L982.913 89.0745L979.17 94.5395V106.198V113.849V126.236L975.801 134.251L974.303 145.91H954.463L953.34 151.739L948.474 159.754L955.96 170.32L954.463 184.164L960.453 190.722L953.34 204.931L940.612 201.288L938.366 214.768C935.995 216.225 931.254 219.358 931.254 220.233C931.254 221.107 931.254 227.641 931.254 230.798L914.782 232.256V236.263L921.146 238.814L920.023 243.914L908.793 244.643L899.808 241.728L896.814 246.829C893.195 255.937 883.711 274.081 874.727 273.789L869.861 277.797C867.764 282.46 868.238 287.269 868.737 289.091L853.015 291.277L840.287 303.3L838.415 307.307L833.174 309.493L832.051 313.865H823.067L819.324 300.385L827.185 294.192L829.805 288.362L824.564 283.99L826.062 281.076L820.447 277.797L812.96 279.983L806.97 285.448L802.478 286.905L800.981 297.106L792.371 299.292L783.386 308.036L781.14 315.687L770.284 318.602L763.171 320.059L759.802 328.438L755.31 330.989L756.059 338.64L759.802 339.733L763.171 346.291H770.284L781.14 351.391C782.388 353.334 785.033 357.293 785.632 357.585C786.231 357.876 793.119 362.807 796.488 365.236H803.227C804.724 362.807 807.794 357.731 808.093 356.856C808.393 355.982 809.216 351.634 809.591 349.57L819.324 345.562C821.071 346.412 824.564 348.185 824.564 348.477C824.564 348.768 830.304 349.812 833.174 350.298H836.544C837.417 349.691 839.389 348.477 840.287 348.477C841.185 348.477 844.904 349.205 846.651 349.57V355.763L843.282 358.313L836.544 357.585L830.928 365.236L824.564 366.329L822.318 370.336L819.324 376.894L813.708 380.173L809.591 383.452L808.093 386.367V393.653L800.981 400.94L796.488 406.04L797.986 415.877L804.724 420.249H812.211L818.201 421.707L823.441 426.807L827.185 432.636L829.805 437.373L833.174 444.295L839.164 448.667L844.031 453.768L850.394 457.411L853.015 461.054L856.384 465.062L851.143 470.162L849.271 474.534C849.771 476.477 850.993 480.291 851.892 479.999C852.79 479.708 856.259 479.878 857.881 479.999L860.502 485.1L851.892 490.2L849.271 496.394H841.41L837.667 499.309L843.282 503.316L846.277 506.231L857.881 503.316C859.628 504.652 863.272 507.542 863.871 508.417C864.47 509.291 865.867 512.91 866.491 514.61L861.999 516.796L866.491 522.99L865.743 529.912V536.834L860.502 541.935L856.384 549.222L853.389 549.95L848.897 557.966L850.769 563.795C850.02 566.224 848.298 571.227 847.4 571.81C846.501 572.393 843.531 576.425 842.159 578.368H838.041C838.54 585.776 839.538 600.811 839.538 601.685C839.538 602.778 836.544 608.607 835.795 608.972C835.196 609.263 830.554 619.051 828.308 623.909C824.564 626.216 816.928 630.977 816.329 631.56C815.58 632.289 812.96 639.939 811.088 641.032C809.216 642.125 802.478 643.583 802.104 645.404C801.729 647.226 799.858 652.691 799.858 654.148C799.858 655.606 794.242 658.885 793.868 660.342C793.494 661.799 791.996 668.721 790.499 670.179C789.301 671.345 767.788 675.765 757.182 677.83L738.09 686.574L725.737 682.202L720.87 692.704C720.621 694.911 719.972 699.325 719.373 699.325C718.774 699.325 709.889 703.697 705.522 705.883L691.297 708.069L683.81 713.17L669.959 716.449L666.59 721.913L661.723 729.2L670.708 737.944L655.359 739.037L652.365 732.843L653.488 721.185L640.385 716.449L629.155 714.2H610.812L592.095 706.976V692.704L574.5 690.581L561.773 679.287L553.162 681.774L545.301 694.953L536.504 693.314L529.953 697.868L520.594 692.704L512.359 700.782L504.123 694.589L494.764 702.24L484.657 698.596L480.913 705.883L485.406 711.348L484.657 723.006L475.298 725.192L470.432 722.278L468.186 714.2L462.196 720.456L454.709 722.278L450.591 718.27L449.843 710.255L438.612 708.069L434.869 704.061L438.987 697.139L438.612 688.395L435.243 684.388H428.879L424.761 679.287L427.007 671.636L419.52 665.443L412.408 662.528L408.29 665.443L402.675 663.621V658.457L406.418 643.947L415.028 638.482L423.264 626.459L427.756 610.429L430.002 598.406L424.761 585.29L417.274 578.732L414.654 571.446L409.413 568.895L392.193 570.353L387.701 564.159L386.203 557.966L383.583 551.408L373.85 545.214L364.866 551.772L350.64 548.493L337.164 555.478L323.687 559.059L317.324 568.167L307.216 574.725L291.868 575.089L281.761 564.888H270.904L261.171 560.88L252.936 561.973L246.572 565.252L238.336 572.174L236.464 561.973H208.763L181.061 555.415L162.718 537.199L154.108 535.013L148.867 522.626L137.637 518.618L124.909 501.859L109.561 490.2L99.4533 492.751L84.4794 480.364L79.2385 470.891L72.5003 468.341L68.7568 461.783L61.6442 458.139L66.885 449.031L63.1416 444.295L62.7672 434.822L68.7568 432.636L74.372 438.101L79.9872 433.365V425.714L75.495 419.885L72.5003 411.505L80.3616 399.118L78.4898 392.56L70.2542 389.281L68.0081 383.816L70.2542 374.708L63.5159 367.786L49.6651 361.228L42.5525 355.034L37.3116 347.384L38.4346 334.996L34.3168 328.803L21.589 324.067L29.0759 313.137L26.8299 305.121L30.9477 294.92L23.0864 289.091L14.8507 283.626L20.0916 270.51L12.979 266.503L17.4712 259.216L32.8194 258.123L54.1572 255.573L62.0185 261.402L69.1311 259.216L77.7411 251.565L88.9716 253.751H103.197L111.807 246.465H133.145L143.252 239.542L141.006 222.055L157.477 213.528L151.488 203.838V194.667L157.477 188.536L146.995 178.335L163.467 176.149L176.569 179.428L186.676 183.436L192.666 179.428L188.548 171.048L197.907 158.963L205.768 142.631C238.336 147.003 230.284 169.401 248.069 145.91C253.31 138.988 234.967 138.259 252.187 124.05C275.397 123.321 259.674 109.113 279.14 110.206C290.074 110.82 285.672 119.937 292.617 130.608C299.729 141.538 300.852 135.344 312.831 144.088C321.441 146.638 320.394 157.61 323.313 168.498C330.051 193.637 318.063 194.805 316.949 199.83C312.831 218.411 345.025 200.195 362.245 216.59C370.384 224.338 363.368 218.411 388.075 229.705C391.819 246.829 391.819 252.294 394.814 254.844C397.808 257.394 403.423 263.224 401.926 264.317C400.429 265.41 410.536 266.867 412.782 266.503C415.028 266.138 429.628 267.231 430.751 268.324C431.874 269.417 437.115 273.061 440.11 273.061C442.505 273.061 454.335 273.061 459.95 273.061C462.321 271.968 467.287 270 468.186 270.875C469.084 271.749 481.288 272.696 487.277 273.061C492.069 273.643 498.009 278.161 500.379 280.347L512.359 281.804L519.097 289.091L534.445 287.634L535.943 293.463H543.804L581.239 273.061L616.802 270.875L654.611 236.628L644.878 223.876L650.867 208.574H662.846C663.47 209.789 664.943 212.291 665.841 212.582C666.74 212.873 675.949 213.189 680.441 213.311L696.912 198.373H704.773L717.875 185.257L720.496 175.358L730.603 169.591L741.834 161.576C744.828 161.576 751.117 161.576 752.315 161.576C753.513 161.576 762.298 160.362 766.541 159.754L768.038 150.646L744.828 134.251L726.86 140.809H713.009L704.773 145.91L698.409 135.709L704.773 123.686L705.522 113.849L713.009 101.826H728.357L738.465 90.1675L745.577 89.0745L744.828 77.416L751.192 62.1142L752.315 50.0914L764.294 39.8902L755.31 30.4176L743.331 28.2317L752.315 19.1234L764.294 11.4725L780.766 5.27896L793.494 2C798.36 3.09299 808.318 5.27896 809.216 5.27896C810.115 5.27896 821.071 6.97916 826.436 7.82926L839.164 21.6737L842.159 34.0609L853.015 42.4405C851.518 43.7764 848.747 46.8124 849.646 48.2697C850.544 49.7271 856.66 51.0629 859.606 51.5487Z" stroke="black" stroke-width="3"/>
<path d="M869.112 288.727L874.353 294.556H883.337L887.455 310.222L883.337 324.431L897.563 330.625L907.296 326.253L924.141 336.454V348.112L918.9 351.391L926.387 364.143L924.141 375.801C922.893 375.923 920.547 376.457 921.146 377.623C921.745 378.789 931.628 386.853 936.495 390.739L947.725 381.995L958.581 375.801H969.812L973.929 360.135L969.812 340.097L964.571 332.446L944.73 304.393L932.002 302.571L921.146 296.742V279.983L936.495 268.324L943.233 259.216V247.193L947.725 234.442L946.228 227.155L954.089 215.861L951.469 205.66L963.073 200.559L967.565 189.994H979.545L989.652 197.645L1005 189.994M627.658 714.627L616.802 718.999L609.315 719.728L604.448 724.099C602.452 724.828 598.683 726.067 599.582 725.193C600.48 724.318 597.96 728.471 596.587 730.657L586.854 731.75L583.859 736.851L586.105 743.409V748.51H576.746L574.126 753.974L571.506 756.16V762.718L566.639 767.819L565.89 775.47L571.506 782.028L576.13 787.493M576.746 788.221L576.13 787.493M406.044 911V902.985C403.798 899.706 399.306 892.929 399.306 892.055C399.306 891.181 399.306 880.518 399.306 875.296L397.434 864.366V846.878L395.188 837.406L385.081 825.383L382.086 819.189L372.353 831.212H361.871L349.143 845.421H334.918L318.072 837.406L326.682 823.197L331.549 804.98L328.18 787.493C326.558 785.55 323.238 781.518 322.939 780.935C322.639 780.352 322.065 774.377 321.816 771.462L320.693 763.083L313.58 754.339L305.719 744.502H299.355L294.488 738.308L285.13 722.278L279.14 710.255L282.509 699.689L281.012 690.217L276.52 682.93H269.782L264.915 680.744L257.054 681.109L255.556 686.209C255.307 688.274 254.733 692.476 254.433 692.767C254.134 693.059 250.315 694.832 248.444 695.682L237.588 695.318L235.342 697.868L218.87 698.596L210.635 697.868L198.655 694.225L195.661 696.411L191.543 697.868L187.051 701.875H178.815L170.205 710.984L175.446 720.456L166.462 726.65L155.231 730.657L137.262 731.75L129.401 735.394H124.535L128.278 745.595L121.166 747.052L116.299 752.153L113.679 750.695L110.309 753.974L95.3356 761.261L80.3617 769.276L69.8799 772.92L63.1417 786.764L54.1573 793.686H42.1782L36.9374 799.151L35.44 800.244L23.0865 803.159H14.8509L5.49217 804.98L1 808.259M654.236 909.907L653.488 894.97L648.247 886.954V871.653L644.503 865.823L627.658 842.871V837.041L615.304 835.22L593.592 813.724L588.726 807.895V796.965L576.746 796.237L576.13 787.493M883 611L870.5 617L861 658L877.5 676.5L890 649V625.5L883 611Z" stroke="white" stroke-width="3"/>
</svg>
